<svg xmlns="http://www.w3.org/2000/svg" viewBox="0 0 600 600" style="background: none;">
    <g xmlns="http://www.w3.org/2000/svg" >
        <animateTransform xmlns="http://www.w3.org/2000/svg" attributeName="transform" type="rotate" values="0 300 300;360 300 300" keyTimes="0;1" dur="3s" repeatCount="indefinite"/>
        <circle cx="300" cy="100" r="60" fill="none" stroke="#f05125" stroke-width="40" />
        <circle cx="300" cy="300" r="200" fill="none" stroke="#f05125" stroke-dasharray="60 3000" stroke-linecap="round" stroke-width="40" transform="rotate(-70 300 300)" />
        <circle cx="300" cy="300" r="200" fill="none" stroke="#f05125" stroke-dasharray="60 3000" stroke-linecap="round" stroke-width="40" transform="rotate(70 300 300) translate(600,0) scale(-1,1)" />
        <circle cx="500" cy="300" r="60" fill="none" stroke="#fdb813" stroke-width="40" />
        <circle cx="300" cy="300" r="200" fill="none" stroke="#fdb813" stroke-dasharray="60 3000" stroke-linecap="round" stroke-width="40" transform="rotate(20 300 300)" />
        <circle cx="300" cy="300" r="200" fill="none" stroke="#fdb813" stroke-dasharray="60 3000" stroke-linecap="round" stroke-width="40" transform="rotate(-20 300 300) translate(0,600) scale(1,-1)" />
        <circle cx="300" cy="500" r="60" fill="none" stroke="#7fbb42" stroke-width="40" />
        <circle cx="300" cy="300" r="200" fill="none" stroke="#7fbb42" stroke-dasharray="60 3000" stroke-linecap="round" stroke-width="40" transform="rotate(110 300 300)" />
        <circle cx="300" cy="300" r="200" fill="none" stroke="#7fbb42" stroke-dasharray="60 3000" stroke-linecap="round" stroke-width="40" transform="rotate(-110 300 300) translate(600,0) scale(-1,1)" />
        <circle cx="100" cy="300" r="60" fill="none" stroke="#32a0da" stroke-width="40" />
        <circle cx="300" cy="300" r="200" fill="none" stroke="#32a0da" stroke-dasharray="60 3000" stroke-linecap="round" stroke-width="40" transform="rotate(200 300 300)" />
        <circle cx="300" cy="300" r="200" fill="none" stroke="#32a0da" stroke-dasharray="60 3000" stroke-linecap="round" stroke-width="40" transform="rotate(-200 300 300) translate(0,600) scale(1,-1)" />
    </g>
</svg>